<svg width="18" height="13" viewBox="0 0 18 13" fill="none" xmlns="http://www.w3.org/2000/svg">
<path fill-rule="evenodd" clip-rule="evenodd" d="M16.7549 0.160099C17.0274 0.375964 17.0308 0.728727 16.7626 0.948018L2.74337 12.4096C2.47515 12.6289 2.03682 12.6317 1.76433 12.4158C1.49185 12.1999 1.4884 11.8472 1.75663 11.6279L2.58285 10.9524C1.95775 10.4737 1.40009 9.9123 0.932431 9.26933C-0.310811 7.56002 -0.31081 5.44039 0.932431 3.73109C3.82732 -0.249039 10.0957 -1.04171 14.3401 1.3401L15.7759 0.166303C16.0441 -0.0529883 16.4824 -0.0557659 16.7549 0.160099ZM13.3523 2.14772C9.73893 0.248136 4.54675 0.967664 2.12738 4.29401C1.13703 5.65563 1.13703 7.34478 2.12738 8.7064C2.53376 9.26512 3.01635 9.74863 3.55434 10.1581L5.72519 8.38334C5.2831 7.86054 5.0246 7.2267 5.0246 6.5453C5.0246 4.76279 6.7936 3.30358 8.99948 3.30358C9.83339 3.30358 10.6073 3.51328 11.2456 3.87007L13.3523 2.14772ZM10.2521 4.68233C9.88033 4.51345 9.45347 4.4179 8.99948 4.4179C7.57906 4.4179 6.40921 5.36138 6.40921 6.5453C6.40921 6.91575 6.52408 7.26296 6.7258 7.56528L10.2521 4.68233ZM16.1204 3.53171C16.4503 3.37626 16.8744 3.46553 17.0676 3.73109C18.3108 5.44039 18.3108 7.56002 17.0676 9.26933C14.656 12.5849 9.89941 13.6878 5.9321 12.5888C5.57057 12.4886 5.37837 12.1716 5.50281 11.8806C5.62725 11.5897 6.02121 11.435 6.38274 11.5351C9.77572 12.475 13.82 11.5285 15.8726 8.70641C16.863 7.34479 16.863 5.65563 15.8726 4.29401C15.6795 4.02845 15.7904 3.68715 16.1204 3.53171ZM12.2831 5.98814C12.6654 5.98814 12.9754 6.23759 12.9754 6.5453C12.9754 8.3273 11.2049 9.78617 8.99948 9.78617C8.61713 9.78617 8.30718 9.53672 8.30718 9.22901C8.30718 8.9213 8.61713 8.67185 8.99948 8.67185C10.4203 8.67185 11.5908 7.72803 11.5908 6.5453C11.5908 6.23759 11.9007 5.98814 12.2831 5.98814Z" fill="#263238"/>
</svg>
